<svg width="20" height="22" viewBox="0 0 20 22" fill="none" xmlns="http://www.w3.org/2000/svg">
<path d="M19.2 4.92484L10.7385 0.194579C10.5124 0.0669477 10.2583 0 10 0C9.7417 0 9.48762 0.0669477 9.26154 0.194579L0.8 4.9268C0.558354 5.06189 0.356638 5.26078 0.215915 5.50271C0.0751925 5.74464 0.000625248 6.02073 0 6.30216V15.6978C0.000625248 15.9793 0.0751925 16.2554 0.215915 16.4973C0.356638 16.7392 0.558354 16.9381 0.8 17.0732L9.26154 21.8054C9.48762 21.9331 9.7417 22 10 22C10.2583 22 10.5124 21.9331 10.7385 21.8054L19.2 17.0732C19.4416 16.9381 19.6434 16.7392 19.7841 16.4973C19.9248 16.2554 19.9994 15.9793 20 15.6978V6.30314C19.9999 6.02122 19.9256 5.74451 19.7848 5.50201C19.6441 5.25952 19.4421 5.06016 19.2 4.92484ZM10 1.56994L17.725 5.8925L14.8625 7.49381L7.13654 3.17125L10 1.56994ZM10 10.2151L2.275 5.8925L5.53462 4.06917L13.2596 8.39173L10 10.2151ZM1.53846 7.26786L9.23077 11.5688V19.9968L1.53846 15.6988V7.26786ZM18.4615 15.6949L10.7692 19.9968V11.5727L13.8462 9.85256V13.3587C13.8462 13.5672 13.9272 13.7671 14.0715 13.9145C14.2157 14.0619 14.4114 14.1447 14.6154 14.1447C14.8194 14.1447 15.0151 14.0619 15.1593 13.9145C15.3036 13.7671 15.3846 13.5672 15.3846 13.3587V8.99197L18.4615 7.26786V15.6939V15.6949Z" fill="#E7F9B0"/>
</svg>
